<svg width="27" height="26" viewBox="0 0 27 26" fill="none" xmlns="http://www.w3.org/2000/svg">
<g clip-path="url(#clip0_6055_2870)">
<path fill-rule="evenodd" clip-rule="evenodd" d="M0.92334 12.8441C0.92334 19.1944 5.47471 24.4749 11.4273 25.5457V16.3205H8.27612V12.7728H11.4273V9.93407C11.4273 6.74086 13.4577 4.96757 16.3295 4.96757C17.2392 4.96757 18.2202 5.10913 19.1299 5.2507V8.51522H17.5196C15.9787 8.51522 15.6289 9.29542 15.6289 10.2896V12.7728H18.9902L18.4303 16.3205H15.6289V25.5457C21.5815 24.4749 26.1329 19.1954 26.1329 12.8441C26.1329 5.7797 20.4607 0 13.5281 0C6.59548 0 0.92334 5.7797 0.92334 12.8441Z" fill="#373737"/>
</g>
<defs>
<clipPath id="clip0_6055_2870">
<rect width="25.2095" height="25.5457" fill="white" transform="translate(0.92334)"/>
</clipPath>
</defs>
</svg>
