<svg width="77" height="97" viewBox="0 0 77 97" fill="none" xmlns="http://www.w3.org/2000/svg">
<mask id="mask0_6055_2678" style="mask-type:alpha" maskUnits="userSpaceOnUse" x="0" y="0" width="77" height="97">
<path d="M38.5132 96.4755C27.3989 93.6769 18.2228 87.2994 10.9849 77.3428C3.74697 67.3863 0.129616 56.3328 0.132815 44.1822V14.9171L38.5132 0.524414L76.8937 14.9171V44.1822C76.8937 56.336 73.2763 67.3911 66.0416 77.3476C58.8069 87.3042 49.6308 93.6801 38.5132 96.4755Z" fill="#00E377"/>
</mask>
<g mask="url(#mask0_6055_2678)">
<path d="M38.5132 96.4755C27.3989 93.6769 18.2228 87.2994 10.9849 77.3428C3.74697 67.3863 0.129616 56.3328 0.132815 44.1822V14.9171L38.5132 0.524414L76.8937 14.9171V44.1822C76.8937 56.336 73.2763 67.3911 66.0416 77.3476C58.8069 87.3042 49.6308 93.6801 38.5132 96.4755Z" fill="#00E377"/>
<path d="M38.5133 90.045C28.8887 87.6215 20.9425 82.0988 14.6747 73.4768C8.40695 64.8548 5.27445 55.2828 5.27722 44.7608V19.4184L38.5133 6.95483L71.7493 19.4184V44.7608C71.7493 55.2856 68.6168 64.859 62.3518 73.4809C56.0868 82.1029 48.1406 87.6243 38.5133 90.045Z" fill="#00E377"/>
<path d="M5.92128 44.761V44.7608V19.8647L38.5133 7.64268L71.1053 19.8647V44.7608C71.1053 55.1477 68.0169 64.5889 61.8308 73.1023C55.6818 81.5648 47.9125 86.9791 38.5134 89.3805C29.1169 86.9764 21.3475 81.5606 15.1957 73.0981C9.00682 64.5847 5.91854 55.145 5.92128 44.761Z" stroke="black" stroke-opacity="0.09" stroke-width="1.28811"/>
<path d="M18.4011 33.8687H38.527C43.9301 33.8687 48.3103 38.2488 48.3103 43.652C48.3103 49.0551 43.9301 53.4353 38.527 53.4353H24.3666C21.072 53.4353 18.4011 50.7644 18.4011 47.4698V33.8687Z" stroke="#373737" stroke-width="5.88773"/>
<path d="M28.7161 43.5647H48.8419C54.2451 43.5647 58.6252 47.9448 58.6252 53.348C58.6252 58.7512 54.2451 63.1313 48.8419 63.1313H39.0735C33.3533 63.1313 28.7161 58.4941 28.7161 52.7739V43.5647Z" stroke="#373737" stroke-width="5.88773"/>
</g>
</svg>
