<svg width="39" height="30" viewBox="0 0 39 30" fill="none" xmlns="http://www.w3.org/2000/svg">
<path d="M0.132812 26V4C0.132812 1.8 1.93281 0 4.13281 0H34.1328C36.3328 0 38.1328 1.8 38.1328 4V26C38.1328 28.2 36.3328 30 34.1328 30H4.13281C1.93281 30 0.132812 28.2 0.132812 26Z" fill="url(#paint0_linear_6055_2825)"/>
<path d="M38.1328 12V10H26.1328C25.0328 10 24.1328 9.1 24.1328 8C24.1328 6.9 25.0328 6 26.1328 6H27.1328V4H26.1328C23.9328 4 22.1328 5.8 22.1328 8C22.1328 10.2 23.9328 12 26.1328 12H29.1328V18H26.1328C23.3328 18 21.1328 20.2 21.1328 23C21.1328 25.8 23.3328 28 26.1328 28H28.1328V26H26.1328C24.4328 26 23.1328 24.7 23.1328 23C23.1328 21.3 24.4328 20 26.1328 20H38.1328V18H31.1328V12H38.1328ZM12.1328 18H9.13281V12H12.1328C14.3328 12 16.1328 10.2 16.1328 8C16.1328 5.8 14.3328 4 12.1328 4H9.13281V6H12.1328C13.2328 6 14.1328 6.9 14.1328 8C14.1328 9.1 13.2328 10 12.1328 10H0.132812V12H7.13281V18H0.132812V20H12.1328C13.8328 20 15.1328 21.3 15.1328 23C15.1328 24.7 13.8328 26 12.1328 26H10.1328V28H12.1328C14.9328 28 17.1328 25.8 17.1328 23C17.1328 20.2 14.9328 18 12.1328 18Z" fill="url(#paint1_linear_6055_2825)"/>
<defs>
<linearGradient id="paint0_linear_6055_2825" x1="17.7942" y1="4.39746" x2="42.7595" y2="42.0951" gradientUnits="userSpaceOnUse">
<stop stop-color="#FEFEF5"/>
<stop offset="1" stop-color="#C4C2A3"/>
</linearGradient>
<linearGradient id="paint1_linear_6055_2825" x1="19.1328" y1="4" x2="33.7023" y2="27.1695" gradientUnits="userSpaceOnUse">
<stop stop-color="#D5D4BB"/>
<stop offset="1" stop-color="#C0BFA1"/>
</linearGradient>
</defs>
</svg>
