<svg width="39" height="31" viewBox="0 0 39 31" fill="none" xmlns="http://www.w3.org/2000/svg">
<path d="M0.714996 26.4585V4.4585C0.714996 2.2585 2.515 0.458496 4.715 0.458496H34.715C36.915 0.458496 38.715 2.2585 38.715 4.4585V26.4585C38.715 28.6585 36.915 30.4585 34.715 30.4585H4.715C2.515 30.4585 0.714996 28.6585 0.714996 26.4585Z" fill="url(#paint0_linear_2_13)"/>
<path d="M38.715 12.4585V10.4585H26.715C25.615 10.4585 24.715 9.5585 24.715 8.4585C24.715 7.3585 25.615 6.4585 26.715 6.4585H27.715V4.4585H26.715C24.515 4.4585 22.715 6.2585 22.715 8.4585C22.715 10.6585 24.515 12.4585 26.715 12.4585H29.715V18.4585H26.715C23.915 18.4585 21.715 20.6585 21.715 23.4585C21.715 26.2585 23.915 28.4585 26.715 28.4585H28.715V26.4585H26.715C25.015 26.4585 23.715 25.1585 23.715 23.4585C23.715 21.7585 25.015 20.4585 26.715 20.4585H38.715V18.4585H31.715V12.4585H38.715ZM12.715 18.4585H9.715V12.4585H12.715C14.915 12.4585 16.715 10.6585 16.715 8.4585C16.715 6.2585 14.915 4.4585 12.715 4.4585H9.715V6.4585H12.715C13.815 6.4585 14.715 7.3585 14.715 8.4585C14.715 9.5585 13.815 10.4585 12.715 10.4585H0.714996V12.4585H7.715V18.4585H0.714996V20.4585H12.715C14.415 20.4585 15.715 21.7585 15.715 23.4585C15.715 25.1585 14.415 26.4585 12.715 26.4585H10.715V28.4585H12.715C15.515 28.4585 17.715 26.2585 17.715 23.4585C17.715 20.6585 15.515 18.4585 12.715 18.4585Z" fill="url(#paint1_linear_2_13)"/>
<defs>
<linearGradient id="paint0_linear_2_13" x1="18.3764" y1="4.85596" x2="43.3417" y2="42.5536" gradientUnits="userSpaceOnUse">
<stop stop-color="#FEFEF5"/>
<stop offset="1" stop-color="#C4C2A3"/>
</linearGradient>
<linearGradient id="paint1_linear_2_13" x1="19.715" y1="4.4585" x2="34.2845" y2="27.628" gradientUnits="userSpaceOnUse">
<stop stop-color="#D5D4BB"/>
<stop offset="1" stop-color="#C0BFA1"/>
</linearGradient>
</defs>
</svg>
