<svg width="25" height="24" viewBox="0 0 25 24" fill="none" xmlns="http://www.w3.org/2000/svg">
<path d="M17.3059 7.97377V4.6698C17.3059 3.01295 15.9627 1.6698 14.3059 1.6698H8.2865C6.62965 1.6698 5.2865 3.01295 5.2865 4.6698V19.3303C5.2865 20.9871 6.62965 22.3303 8.2865 22.3303H14.3059C15.9627 22.3303 17.3059 20.9871 17.3059 19.3303V17.1851" stroke="#00E377" stroke-width="1.5"/>
<path d="M8.80176 19.4705H13.7906" stroke="#00E377" stroke-width="1.5" stroke-linecap="round"/>
<path d="M9.22168 4.37622H9.77039" stroke="#00E377" stroke-width="1.5" stroke-linecap="round"/>
<path d="M11.6169 4.37622L13.3706 4.37622" stroke="#00E377" stroke-width="1.5" stroke-linecap="round"/>
<circle cx="17.0304" cy="12.5503" r="4.53667" stroke="#00E377" stroke-width="1.5"/>
<path d="M18.5716 11.6163C18.5716 11.0604 17.8817 10.6103 17.0304 10.6103C16.1794 10.6103 15.4892 11.0606 15.4892 11.6163C15.4892 12.1719 15.9096 12.4784 17.0304 12.4784C18.1513 12.4784 18.7118 12.7658 18.7118 13.4847C18.7118 14.2031 17.9591 14.4905 17.0304 14.4905C16.1018 14.4905 15.349 14.0401 15.349 13.4845M17.1598 10.0929V10.5352M17.1598 15.0078V14.5655" stroke="#00E377" stroke-width="1.1" stroke-linecap="round"/>
</svg>
