<svg width="38" height="38" viewBox="0 0 38 38" fill="none" xmlns="http://www.w3.org/2000/svg">
<path d="M18.6328 1.99011C9.23858 1.99011 1.62292 9.6059 1.62292 19C1.62292 28.3948 9.23871 36.0099 18.6328 36.0099C28.0277 36.0099 35.6427 28.3948 35.6427 19C35.6427 9.60656 28.0277 1.99104 18.6326 1.99104L18.6328 1.99011ZM26.4333 26.5234C26.1286 27.0231 25.4745 27.1815 24.9749 26.8748C20.9811 24.4353 15.9536 23.8828 10.0327 25.2356C9.75854 25.298 9.47079 25.249 9.23275 25.0993C8.99471 24.9496 8.82587 24.7115 8.76336 24.4373C8.73224 24.3016 8.72818 24.1611 8.75141 24.0238C8.77465 23.8865 8.82473 23.7552 8.89879 23.6372C8.97285 23.5193 9.06943 23.4172 9.18301 23.3366C9.29659 23.2561 9.42493 23.1987 9.5607 23.1678C16.0404 21.6874 21.5983 22.3248 26.082 25.065C26.5816 25.3717 26.74 26.0238 26.4333 26.5234ZM28.5153 21.8918C28.1313 22.5157 27.3148 22.7128 26.6913 22.3289C22.1191 19.5185 15.1494 18.7046 9.74143 20.3462C9.04004 20.558 8.29931 20.1628 8.08642 19.4626C7.87513 18.7612 8.27061 18.0218 8.9708 17.8087C15.1482 15.9341 22.8279 16.8421 28.0786 20.0687C28.7022 20.4528 28.8992 21.2691 28.5153 21.8918ZM28.694 17.0689C23.2118 13.8125 14.1669 13.513 8.9328 15.1018C8.09227 15.3567 7.20337 14.8822 6.94875 14.0416C6.694 13.2007 7.16802 12.3125 8.00921 12.0569C14.0176 10.2329 24.0061 10.5854 30.3177 14.3324C31.0754 14.781 31.3231 15.7575 30.8742 16.5124C30.4275 17.2686 29.4483 17.5178 28.6948 17.0689H28.694Z" fill="#1ED760"/>
</svg>
