<svg width="25" height="24" viewBox="0 0 25 24" fill="none" xmlns="http://www.w3.org/2000/svg">
<path d="M6.61707 1.3241V5.3241M14.6171 1.3241V5.3241" stroke="#00E377" stroke-width="1.5" stroke-linecap="round"/>
<path d="M19.6171 13.4316V5.08037C19.6171 4.11041 18.7216 3.3241 17.6171 3.3241H3.61707C2.5125 3.3241 1.61707 4.11041 1.61707 5.08037V17.3743C1.61707 18.3443 2.5125 19.1306 3.61707 19.1306H14.2029" stroke="#00E377" stroke-width="1.5"/>
<path d="M1.61707 9.3241H19.6171" stroke="#00E377" stroke-width="1.5"/>
<circle cx="18.7786" cy="18.1393" r="4.53667" stroke="#00E377" stroke-width="1.5"/>
<path d="M20.3198 17.2053C20.3198 16.6494 19.6299 16.1992 18.7786 16.1992C17.9275 16.1992 17.2374 16.6496 17.2374 17.2053C17.2374 17.7609 17.6577 18.0674 18.7786 18.0674C19.8995 18.0674 20.46 18.3548 20.46 19.0737C20.46 19.7921 19.7073 20.0795 18.7786 20.0795C17.8499 20.0795 17.0972 19.6291 17.0972 19.0734M18.9079 15.6819V16.1242M18.9079 20.5968V20.1545" stroke="#00E377" stroke-width="1.1" stroke-linecap="round"/>
</svg>
