<svg width="38" height="38" viewBox="0 0 38 38" fill="none" xmlns="http://www.w3.org/2000/svg">
<path d="M31.7185 2.13949H5.5472C3.48647 2.13949 1.80042 3.82554 1.80042 5.88627V32.1137C1.80042 34.1745 3.48647 35.8605 5.5472 35.8605H31.7185C33.7792 35.8605 35.4652 34.1745 35.4652 32.1137V5.88627C35.4652 4.89256 35.0705 3.93955 34.3678 3.23689C33.6652 2.53424 32.7122 2.13949 31.7185 2.13949ZM28.7398 28.3295C28.6836 28.3482 28.6086 28.367 28.5524 28.367H24.3186C24.1352 28.3701 23.9551 28.3182 23.8016 28.218C23.648 28.1178 23.5279 27.974 23.4568 27.8049L18.8483 17.0517C18.8108 16.9393 18.6984 16.8831 18.6047 16.9205C18.5748 16.9318 18.5476 16.9493 18.525 16.972C18.5024 16.9946 18.4849 17.0217 18.4736 17.0517L15.6073 23.8895C15.5511 24.0207 15.6073 24.1518 15.7384 24.208C15.7759 24.2268 15.7946 24.2268 15.8321 24.2268H18.9794C19.1667 24.2268 19.3541 24.3392 19.429 24.5265L20.8153 27.5989C20.9465 27.8799 20.7966 28.2171 20.5156 28.3482C20.4032 28.3482 20.3282 28.367 20.2533 28.367H8.78816C8.50715 28.367 8.26361 28.1234 8.26361 27.8424C8.26361 27.7675 8.28234 27.7113 8.30108 27.6363L15.6073 10.2513C15.7572 9.87659 16.1318 9.63305 16.5253 9.63305H20.7404C21.1525 9.63305 21.5085 9.87659 21.6584 10.2513L29.002 27.6363C29.1332 27.8986 29.0208 28.2171 28.7398 28.3295Z" fill="#EF1616"/>
</svg>
