<svg width="25" height="24" viewBox="0 0 25 24" fill="none" xmlns="http://www.w3.org/2000/svg">
<path d="M2.18604 3.70984V20.2902C2.18604 21.3948 3.08146 22.2902 4.18603 22.2902H20.7464C21.851 22.2902 22.7464 21.3948 22.7464 20.2902V7.02456C22.7464 6.55894 22.5839 6.10791 22.287 5.74923L20.7223 3.85903L19.3466 2.35835C18.9678 1.94512 18.4329 1.70984 17.8723 1.70984H4.18604C3.08147 1.70984 2.18604 2.60527 2.18604 3.70984Z" stroke="#00E377" stroke-width="1.5"/>
<path d="M14.7166 6.89466C14.7166 6.02856 13.6417 5.32729 12.3153 5.32729C10.9894 5.32729 9.91412 6.02896 9.91412 6.89466C9.91412 7.76036 10.569 8.23794 12.3153 8.23794C14.0617 8.23794 14.935 8.6857 14.935 9.80571C14.935 10.9249 13.7622 11.3727 12.3153 11.3727C10.8685 11.3727 9.69568 10.671 9.69568 9.80531M12.5169 4.52124V5.21041M12.5169 12.1787V11.4896" stroke="#00E377" stroke-width="1.5" stroke-linecap="round"/>
<path d="M5.66296 15.0958L19.2367 15.0958" stroke="#00E377" stroke-width="1.5" stroke-linecap="round" stroke-linejoin="round"/>
<path d="M5.66296 18.2505H15.2104" stroke="#00E377" stroke-width="1.5" stroke-linecap="round" stroke-linejoin="round"/>
</svg>
