<svg width="25" height="24" viewBox="0 0 25 24" fill="none" xmlns="http://www.w3.org/2000/svg">
<path d="M12.7996 20.5717C14.0702 20.5717 15.3283 20.3214 16.5022 19.8351C17.6761 19.3489 18.7427 18.6362 19.6412 17.7378C20.5397 16.8393 21.2524 15.7727 21.7386 14.5988C22.2248 13.4249 22.4751 12.1667 22.4751 10.8961C22.4751 9.62551 22.2248 8.36734 21.7386 7.19345C21.2524 6.01956 20.5397 4.95294 19.6412 4.05448C18.7427 3.15602 17.6761 2.44333 16.5022 1.95709C15.3283 1.47085 14.0702 1.22058 12.7996 1.22058M12.7996 20.5717C11.529 20.5717 10.2708 20.3214 9.09689 19.8351M12.7996 20.5717C15.7678 20.5717 17.0364 15.0211 17.0364 10.8961C17.0364 6.77111 15.7678 1.22058 12.7996 1.22058M12.7996 20.5717C9.83132 20.5717 8.56275 15.0211 8.56275 10.8961C8.56275 6.77111 9.83132 1.22058 12.7996 1.22058M12.7996 1.22058C11.529 1.22058 10.2708 1.47085 9.09689 1.95709C7.923 2.44333 6.85638 3.15602 5.95792 4.05448C5.05947 4.95294 4.34677 6.01956 3.86053 7.19345C3.37429 8.36734 3.12402 9.62551 3.12402 10.8961C3.12402 12.1667 3.37429 13.4249 3.86053 14.5988C4.01535 14.9725 4.19312 15.3354 4.39254 15.6855M3.66155 7.67094H21.9376M3.66155 14.1213H21.9376" stroke="#00E377" stroke-width="1.5" stroke-linecap="round"/>
<path d="M2.48242 21.9822L6.63281 17.8318" stroke="#00E377" stroke-width="1.5" stroke-linecap="round" stroke-linejoin="round"/>
<path d="M3.60358 17.4953L6.96945 17.4953V20.8612" stroke="#00E377" stroke-width="1.5" stroke-linecap="round" stroke-linejoin="round"/>
</svg>
