<svg width="21" height="20" viewBox="0 0 21 20" fill="none" xmlns="http://www.w3.org/2000/svg">
<path d="M17.1328 1H15.1328C14.8676 1 14.6132 1.10536 14.4257 1.29289C14.2382 1.48043 14.1328 1.73478 14.1328 2V18.992H18.1328V2C18.1328 1.73478 18.0275 1.48043 17.8399 1.29289C17.6524 1.10536 17.398 1 17.1328 1ZM11.1328 7H9.13281C8.8676 7 8.61324 7.10536 8.42571 7.29289C8.23817 7.48043 8.13281 7.73478 8.13281 8V18.992H12.1328V8C12.1328 7.73478 12.0275 7.48043 11.8399 7.29289C11.6524 7.10536 11.398 7 11.1328 7ZM5.13281 13H3.13281C2.8676 13 2.61324 13.1054 2.42571 13.2929C2.23817 13.4804 2.13281 13.7348 2.13281 14V18.992H6.13281V14C6.13281 13.7348 6.02746 13.4804 5.83992 13.2929C5.65238 13.1054 5.39803 13 5.13281 13Z" fill="#00E377"/>
</svg>
