<svg width="38" height="38" viewBox="0 0 38 38" fill="none" xmlns="http://www.w3.org/2000/svg">
<path d="M30.8064 21.4327V11.0196C30.8064 9.91499 29.911 9.01956 28.8064 9.01956H3.49512C2.39055 9.01956 1.49512 9.91499 1.49512 11.0196V27.3038C1.49512 28.4083 2.39055 29.3038 3.49512 29.3038H24.1971" stroke="#00E377" stroke-width="1.5"/>
<path d="M19.4974 17.1334C19.4974 15.9263 17.9994 14.949 16.1509 14.949C14.3029 14.949 12.8043 15.9269 12.8043 17.1334C12.8043 18.3399 13.7171 19.0055 16.1509 19.0055C18.5847 19.0055 19.8019 19.6295 19.8019 21.1905C19.8019 22.7503 18.1673 23.3743 16.1509 23.3743C14.1344 23.3743 12.4999 22.3964 12.4999 21.1899M16.4317 13.8256V14.7861M16.4317 24.4977V23.5372" stroke="#00E377" stroke-width="1.5" stroke-linecap="round"/>
<circle cx="30.0945" cy="27.6752" r="5.67603" stroke="#00E377" stroke-width="1.5"/>
<path d="M30.0945 25.1118V30.2386" stroke="#00E377" stroke-width="1.5" stroke-linecap="round" stroke-linejoin="round"/>
<path d="M32.6578 27.6752L27.5311 27.6752" stroke="#00E377" stroke-width="1.5" stroke-linecap="round" stroke-linejoin="round"/>
<path d="M3.79712 4.6488H27.7295" stroke="#00E377" stroke-width="1.5" stroke-linecap="round" stroke-linejoin="round"/>
<path d="M3.79712 33.3512H22.6902" stroke="#00E377" stroke-width="1.5" stroke-linecap="round" stroke-linejoin="round"/>
</svg>
