<svg width="25" height="24" viewBox="0 0 25 24" fill="none" xmlns="http://www.w3.org/2000/svg">
<path d="M20.696 13.578V7.52624C20.696 6.42168 19.8006 5.52625 18.696 5.52625H3.68323C2.57866 5.52625 1.68323 6.42168 1.68323 7.52625V16.6836C1.68323 17.7881 2.57866 18.6836 3.68323 18.6836H16.4088" stroke="#00E377" stroke-width="1.5"/>
<path d="M13.3604 10.7893C13.3604 10.0063 12.3887 9.37236 11.1896 9.37236C9.99094 9.37236 9.01888 10.0067 9.01888 10.7893C9.01888 11.5719 9.61094 12.0036 11.1896 12.0036C12.7683 12.0036 13.5578 12.4084 13.5578 13.4209C13.5578 14.4327 12.4976 14.8375 11.1896 14.8375C9.88164 14.8375 8.82141 14.2031 8.82141 13.4205M11.3718 8.64368V9.2667M11.3718 15.5661V14.9431" stroke="#00E377" stroke-width="1.5" stroke-linecap="round"/>
<circle cx="20.2342" cy="17.6272" r="3.68175" stroke="#00E377" stroke-width="1.5"/>
<path d="M20.2343 15.9645V19.2899" stroke="#00E377" stroke-width="1.5" stroke-linecap="round" stroke-linejoin="round"/>
<path d="M21.897 17.6272L18.5715 17.6272" stroke="#00E377" stroke-width="1.5" stroke-linecap="round" stroke-linejoin="round"/>
<path d="M3.17639 2.69116H18.7001" stroke="#00E377" stroke-width="1.5" stroke-linecap="round" stroke-linejoin="round"/>
<path d="M3.17639 21.309H15.4314" stroke="#00E377" stroke-width="1.5" stroke-linecap="round" stroke-linejoin="round"/>
</svg>
