<svg width="38" height="38" viewBox="0 0 38 38" fill="none" xmlns="http://www.w3.org/2000/svg">
<path d="M7.88677 1.77886C6.16945 1.77886 4.52247 2.46106 3.30815 3.67539C2.09382 4.88971 1.41162 6.53669 1.41162 8.25401V29.746C1.41162 31.4633 2.09382 33.1103 3.30815 34.3246C4.52247 35.5389 6.16945 36.2211 7.88677 36.2211H29.3788C30.2291 36.2211 31.0711 36.0537 31.8567 35.7283C32.6423 35.4028 33.3561 34.9259 33.9574 34.3246C34.5587 33.7233 35.0356 33.0095 35.361 32.2239C35.6864 31.4383 35.8539 30.5963 35.8539 29.746V8.25401C35.8539 7.40368 35.6864 6.56168 35.361 5.77608C35.0356 4.99047 34.5587 4.27666 33.9574 3.67539C33.3561 3.07411 32.6423 2.59716 31.8567 2.27175C31.0711 1.94634 30.2291 1.77886 29.3788 1.77886H7.88677ZM16.7298 7.03131V7.03647H16.8039C16.9015 7.0291 16.9995 7.0426 17.0915 7.07608C17.2546 7.12701 17.3937 7.23536 17.483 7.38103C17.5723 7.52669 17.6057 7.6998 17.5771 7.86825C17.5642 8.02378 17.4983 8.17017 17.3905 8.28299C17.2827 8.39582 17.1395 8.46826 16.9847 8.48821C16.8468 8.51241 16.7058 8.51241 16.5679 8.48821C16.3882 8.46417 16.2252 8.37022 16.1143 8.22675C16.0034 8.08328 15.9535 7.90187 15.9755 7.72187C15.9845 7.53059 16.0689 7.35066 16.2103 7.22153C16.3517 7.0924 16.5385 7.02289 16.7298 7.03131ZM9.42806 9.11851C9.79846 9.10535 10.164 9.20634 10.4751 9.40778C10.7862 9.60923 11.0279 9.90141 11.1674 10.2448C11.2983 10.5433 11.3775 10.855 11.405 11.1799H11.3947C11.455 11.7 11.4085 12.2286 11.2569 12.7298C11.1395 13.1274 10.9163 13.4858 10.6112 13.7665C10.4147 13.9439 10.182 14.0764 9.92929 14.1549C9.67653 14.2334 9.40972 14.256 9.14736 14.2211C8.75282 14.1855 8.37682 14.0373 8.06415 13.794C8.01937 13.8319 8.04176 13.8767 8.04176 13.9249V15.6935C8.04176 16.0793 8.04176 16.081 7.6474 16.081H6.97577C6.90985 16.0919 6.84219 16.0833 6.78104 16.0564C6.71988 16.0295 6.66787 15.9854 6.63135 15.9295L6.63824 9.39405C6.68696 9.34627 6.74596 9.31026 6.81073 9.28877C6.87549 9.26728 6.94432 9.26088 7.01194 9.27005H7.58712C7.61857 9.26569 7.65056 9.26758 7.68128 9.27561C7.71199 9.28364 7.74081 9.29766 7.7661 9.31686C7.79138 9.33606 7.81262 9.36007 7.8286 9.3875C7.84458 9.41493 7.85498 9.44525 7.85922 9.47671C7.87043 9.54181 7.88538 9.6062 7.90399 9.66959C7.90744 9.68107 7.9149 9.68681 7.92638 9.68681C7.9747 9.66229 8.01887 9.63033 8.05726 9.59209C8.45162 9.28211 8.93554 9.11679 9.42634 9.11851H9.42806ZM21.6327 9.1254C21.79 9.1254 21.9461 9.1409 22.1011 9.17189C22.256 9.20507 22.4026 9.26934 22.5319 9.36081C22.6613 9.45227 22.7707 9.56904 22.8537 9.70403V9.72125C23.0104 9.62653 23.1757 9.52665 23.3445 9.44054C23.7802 9.21667 24.2675 9.10645 24.7566 9.12884C25.4454 9.10645 26.0189 9.6472 26.0396 10.3343V13.813C26.0396 14.092 26.0034 14.1333 25.7227 14.1333H24.8152C24.7781 14.1285 24.7437 14.1118 24.7169 14.0857C24.6902 14.0596 24.6727 14.0256 24.6671 13.9886C24.6583 13.9201 24.6537 13.8511 24.6533 13.782V10.9026C24.658 10.7861 24.6458 10.6695 24.6171 10.5565C24.5921 10.4614 24.5377 10.3767 24.4616 10.3145C24.3855 10.2523 24.2916 10.2158 24.1935 10.2103C23.8248 10.1898 23.4569 10.2608 23.1223 10.417C23.0983 10.4234 23.0775 10.4383 23.0636 10.4588C23.0497 10.4794 23.0436 10.5043 23.0465 10.5289V13.8044C23.0488 13.8664 23.0454 13.9272 23.0362 13.9869C23.0362 14.0679 22.9673 14.135 22.8847 14.135H21.9323C21.7016 14.135 21.6534 14.0799 21.6534 13.8492V10.9009C21.6533 10.7922 21.6429 10.6838 21.6224 10.5771C21.6009 10.4752 21.5464 10.3831 21.4673 10.3152C21.3883 10.2473 21.289 10.2074 21.1849 10.2017C20.811 10.1816 20.438 10.2556 20.1 10.417C20.076 10.4245 20.0556 10.4406 20.0426 10.4622C20.0296 10.4837 20.0249 10.5093 20.0294 10.5341V13.8647C20.0294 14.092 19.976 14.1402 19.7452 14.1402H18.9221C18.7016 14.1402 18.6431 14.073 18.6431 13.8647L18.6362 9.54559C18.6362 9.49393 18.6431 9.44341 18.6569 9.39405C18.668 9.35863 18.6903 9.32777 18.7204 9.30604C18.7505 9.28432 18.7868 9.2729 18.8239 9.2735H19.6161C19.7194 9.2735 19.8055 9.34755 19.8296 9.44743C19.8641 9.53354 19.8813 9.61964 19.9106 9.70919C19.9743 9.70919 20.0122 9.66786 20.0552 9.64203C20.3928 9.41816 20.7699 9.25972 21.166 9.17534C21.321 9.14319 21.4765 9.12769 21.6327 9.12884V9.1254ZM29.21 9.16501C29.5258 9.15843 29.8403 9.2062 30.1399 9.30622C30.5095 9.43332 30.814 9.70085 30.9878 10.0509C31.1615 10.4009 31.1904 10.8053 31.0682 11.1764C31.0231 11.3229 30.9494 11.459 30.8512 11.5767C30.7531 11.6943 30.6324 11.7913 30.4964 11.8618C30.2542 11.9916 29.9958 12.076 29.7215 12.115C29.2513 12.1908 28.7743 12.1839 28.3059 12.0943C28.2484 12.0816 28.1904 12.0718 28.1319 12.065C28.1063 12.3243 28.1788 12.5837 28.335 12.7922C28.4912 13.0007 28.7198 13.1431 28.9758 13.1913C29.3615 13.2671 29.7576 13.2671 30.1434 13.1913C30.3242 13.1534 30.4964 13.1121 30.6772 13.0708C30.8581 13.026 30.9338 13.0845 30.9338 13.2688V13.7286C30.941 13.7966 30.9236 13.8649 30.8847 13.9211C30.8459 13.9774 30.7881 14.0178 30.722 14.0351C30.4855 14.128 30.2395 14.1944 29.9884 14.2332C29.5165 14.3193 29.0309 14.3141 28.5625 14.2211C28.1774 14.1598 27.8194 13.9847 27.5346 13.7183C27.2498 13.452 27.0512 13.1065 26.9644 12.7263C26.785 12.0908 26.7922 11.4171 26.985 10.7855H26.9816C27.2054 9.89518 27.9804 9.24767 28.8983 9.18395C29.0016 9.17247 29.1061 9.16673 29.2117 9.16673L29.21 9.16501ZM15.2523 9.22184C15.4141 9.22184 15.4675 9.2735 15.4813 9.43021C15.4933 9.64375 15.4813 9.86246 15.4813 10.0726C15.486 10.1589 15.4814 10.2455 15.4675 10.3309C15.4666 10.376 15.4481 10.4189 15.4159 10.4504C15.3837 10.482 15.3404 10.4997 15.2953 10.4996C15.2092 10.5054 15.1231 10.5054 15.037 10.4996C14.6267 10.4728 14.2154 10.5326 13.8298 10.6753C13.7437 10.7063 13.7454 10.7666 13.7454 10.8372V13.9818C13.7428 14.0205 13.7258 14.0568 13.6978 14.0836C13.6697 14.1104 13.6326 14.1256 13.5939 14.1264C13.5422 14.1287 13.4905 14.1287 13.4389 14.1264V14.1367H12.4917C12.4538 14.1308 12.4189 14.1122 12.3927 14.0842C12.3665 14.0561 12.3504 14.02 12.347 13.9818V9.5852C12.347 9.29933 12.3729 9.27005 12.6587 9.27005H13.258C13.3229 9.26015 13.389 9.27633 13.4419 9.31506C13.4949 9.35379 13.5303 9.41192 13.5405 9.47671C13.5841 9.63055 13.6231 9.79128 13.6576 9.9589C13.7008 9.94745 13.7378 9.91966 13.7609 9.88141C13.8746 9.77004 13.994 9.66442 14.1191 9.56454C14.4416 9.31435 14.8452 9.19228 15.2523 9.22184ZM16.2924 9.27005C16.6162 9.26317 16.9399 9.26317 17.2637 9.27005C17.4066 9.27005 17.4479 9.31139 17.4617 9.45432V13.7631C17.464 13.8319 17.4606 13.9014 17.4514 13.9714C17.4481 14.0087 17.4315 14.0435 17.4046 14.0694C17.3777 14.0954 17.3423 14.1107 17.305 14.1126C17.2689 14.1164 17.2326 14.1164 17.1965 14.1126L17.2034 14.123H16.3389C16.3103 14.1266 16.2814 14.1266 16.2528 14.123C16.2091 14.1234 16.1669 14.1068 16.1354 14.0765C16.1038 14.0462 16.0854 14.0048 16.084 13.9611V9.48188C16.084 9.33205 16.1443 9.27867 16.2907 9.2735L16.2924 9.27005ZM29.0963 10.1242C28.9177 10.1329 28.7454 10.1929 28.6 10.2971C28.4546 10.4012 28.3423 10.5451 28.2766 10.7115C28.2182 10.8503 28.1782 10.9962 28.1578 11.1454C28.1509 11.2488 28.1492 11.2505 28.2439 11.2574C28.485 11.2941 28.7289 11.3119 28.9758 11.3108C29.1099 11.3188 29.2445 11.3072 29.3753 11.2763C29.4805 11.2684 29.5812 11.2304 29.6655 11.1669C29.7497 11.1034 29.814 11.0171 29.8506 10.9181C29.8826 10.8132 29.8891 10.7022 29.8696 10.5944C29.8609 10.5095 29.8299 10.4284 29.7797 10.3594C29.7294 10.2904 29.6618 10.236 29.5837 10.2017C29.4778 10.1588 29.3654 10.1338 29.2513 10.1277C29.1997 10.1242 29.148 10.123 29.0963 10.1242ZM8.97687 10.1811C8.69972 10.1791 8.42619 10.2441 8.17953 10.3705C8.14096 10.3853 8.1083 10.4124 8.08654 10.4475C8.06477 10.4827 8.0551 10.5239 8.05898 10.5651V12.8142C8.05603 12.8501 8.06441 12.886 8.08294 12.9169C8.10148 12.9478 8.12924 12.9721 8.16231 12.9864C8.43996 13.1337 8.75262 13.2021 9.06642 13.1844V13.1879C9.27781 13.1865 9.48131 13.1074 9.63816 12.9657C9.78263 12.8334 9.88251 12.6595 9.92403 12.468C10.0256 12.084 10.0515 11.681 10.0015 11.2867C9.98941 11.0678 9.93564 10.8533 9.84309 10.6546C9.78988 10.5366 9.70794 10.4338 9.60475 10.3556C9.50157 10.2773 9.38043 10.2262 9.25241 10.2069C9.1614 10.1909 9.06926 10.1823 8.97687 10.1811ZM13.0927 16.1447C13.135 16.1395 13.1778 16.1395 13.2202 16.1447C13.347 16.1346 13.4743 16.1565 13.5904 16.2085C13.7096 16.254 13.8128 16.3333 13.8875 16.4367C13.9621 16.5401 14.0049 16.6631 14.0106 16.7905C14.0268 16.8853 14.0239 16.9823 14.0022 17.0759C13.9805 17.1696 13.9403 17.2579 13.884 17.3358C13.8277 17.4138 13.7565 17.4797 13.6744 17.5298C13.5924 17.5798 13.5012 17.6131 13.4061 17.6275V17.6223C13.3303 17.6351 13.2529 17.6351 13.1771 17.6223C13.1078 17.619 13.0388 17.6115 12.9705 17.5999C12.7899 17.561 12.6317 17.4528 12.53 17.2985C12.4283 17.1443 12.391 16.9564 12.4263 16.775C12.441 16.6068 12.517 16.4498 12.6399 16.3339C12.7627 16.218 12.9239 16.1513 13.0927 16.1465V16.1447ZM18.4313 16.1964H19.2958C19.4852 16.2016 19.5369 16.2429 19.5369 16.4375V22.9953C19.5369 23.1675 19.4818 23.2312 19.3096 23.2312H18.495C18.4445 23.2314 18.3953 23.2145 18.3556 23.1833C18.3159 23.152 18.2879 23.1082 18.2763 23.059C18.2629 22.9852 18.2416 22.913 18.2126 22.8438C18.1557 22.8558 18.1299 22.8954 18.0851 22.9213C17.8209 23.1293 17.5089 23.2679 17.1774 23.3245C16.8459 23.381 16.5056 23.3537 16.1874 23.245C15.9526 23.1688 15.736 23.0448 15.5514 22.881C15.3668 22.7171 15.218 22.5168 15.1145 22.2927C14.9069 21.881 14.7995 21.426 14.8011 20.9649C14.7725 20.4764 14.8458 19.9873 15.0163 19.5287C15.1851 19.0465 15.533 18.647 15.9893 18.4179C16.6368 18.1097 17.3946 18.1596 17.9973 18.5488C18.0386 18.5821 18.0857 18.6051 18.1385 18.6177V18.6056C18.1695 18.5626 18.1523 18.5161 18.1523 18.4713V16.4702C18.1523 16.2343 18.1936 16.1964 18.4313 16.1964ZM27.9494 18.2233C28.5041 18.2257 29.0387 18.4309 29.4526 18.8001C29.8666 19.1693 30.1312 19.6771 30.1968 20.2279V20.2416H30.1795V20.3553C30.1757 20.3729 30.1765 20.3913 30.1819 20.4085C30.1874 20.4257 30.1972 20.4412 30.2105 20.4535V20.4259L30.2174 20.4397V21.1561L30.2036 21.1802V21.1664C30.1658 21.1905 30.1761 21.225 30.1761 21.2629V21.3507C30.1495 21.8622 29.9399 22.3472 29.5855 22.7171C29.2311 23.0869 28.7556 23.3171 28.2456 23.3656C27.8548 23.419 27.4573 23.3974 27.0746 23.3018C26.7382 23.2301 26.4264 23.072 26.1697 22.8431C25.9131 22.6142 25.7204 22.3224 25.6108 21.9965C25.3227 21.237 25.3227 20.3984 25.6108 19.6389C25.8691 18.8777 26.5528 18.337 27.3535 18.2612C27.551 18.2279 27.7496 18.2153 27.9494 18.2233ZM22.7762 18.275C23.0919 18.2601 23.4019 18.2985 23.7061 18.3904C24.2227 18.535 24.6119 18.9569 24.7239 19.4805C24.7704 19.7095 24.7704 19.9454 24.7239 20.1745C24.691 20.3518 24.617 20.5189 24.5078 20.6625C24.3987 20.8061 24.2574 20.922 24.0953 21.0011C23.7681 21.1647 23.4099 21.2542 23.0448 21.2663C22.6345 21.2929 22.2224 21.2668 21.8187 21.1888H21.8118C21.7859 21.1795 21.7581 21.1766 21.7308 21.1802C21.7423 21.3076 21.7647 21.4339 21.798 21.5591C21.8436 21.7523 21.9466 21.9271 22.0936 22.0605C22.2405 22.194 22.4245 22.2797 22.6212 22.3065C23.0465 22.3788 23.4822 22.3633 23.9007 22.26C24.0368 22.229 24.1642 22.1997 24.3002 22.1618C24.4811 22.1187 24.562 22.1911 24.562 22.3633V22.8145C24.5736 22.8856 24.5568 22.9585 24.5152 23.0174C24.4737 23.0763 24.4107 23.1166 24.3398 23.1296C23.9109 23.2922 23.457 23.379 22.9983 23.3862C22.6855 23.3971 22.3726 23.3652 22.0684 23.2915C21.7328 23.2184 21.4231 23.0561 21.1718 22.8219C20.9206 22.5876 20.7372 22.29 20.6407 21.9603C20.4166 21.2852 20.407 20.5573 20.6132 19.8766C20.742 19.4057 21.0252 18.9919 21.4175 18.7014C21.8098 18.411 22.2883 18.2608 22.7762 18.275ZM12.7879 18.3749H13.6679C13.8608 18.3818 13.9176 18.4403 13.9176 18.6332L13.9211 18.6229V23.047C13.9244 23.0918 13.9101 23.1363 13.8811 23.1707C13.8522 23.2051 13.8109 23.2269 13.7661 23.2312H12.7294C12.6842 23.2361 12.6389 23.2229 12.6034 23.1945C12.5679 23.1661 12.5451 23.1248 12.5399 23.0797V23.0504C12.5365 23.0109 12.5365 22.9711 12.5399 22.9316V18.6229C12.5399 18.43 12.595 18.3749 12.7862 18.3749H12.7879ZM7.19965 18.3818H8.26047C8.40857 18.3818 8.47746 18.4799 8.51534 18.6091C8.58423 18.8467 8.65656 19.0913 8.73061 19.3255C8.98548 20.1883 9.23519 21.0648 9.48834 21.9293H9.50039L9.61233 21.5677L10.4734 18.6797L10.5078 18.5695C10.5255 18.5172 10.5594 18.4719 10.6047 18.4403C10.6499 18.4087 10.7041 18.3924 10.7593 18.3938H11.7099C11.9475 18.3904 11.9975 18.4575 11.92 18.6797L11.9131 18.6762L11.5342 19.6665L10.284 22.9247L10.2443 23.0366C10.2219 23.1006 10.1791 23.1555 10.1225 23.1928C10.0659 23.2301 9.99857 23.2479 9.93092 23.2433H9.10947C9.02644 23.2529 8.94275 23.232 8.874 23.1845C8.80524 23.137 8.75611 23.066 8.73577 22.985C8.58078 22.5768 8.41718 22.1584 8.26219 21.7485C7.88562 20.7715 7.50963 19.7899 7.13421 18.8037C7.09767 18.728 7.07049 18.6482 7.05327 18.566C7.03432 18.4403 7.07565 18.3818 7.19965 18.3818ZM22.7796 19.2222C22.6296 19.2158 22.4803 19.2458 22.3445 19.3097C22.2086 19.3736 22.0903 19.4694 21.9995 19.589C21.8652 19.7926 21.7808 20.0251 21.7532 20.2675C21.736 20.3243 21.7653 20.3519 21.8221 20.3553C22.0701 20.3943 22.3198 20.4156 22.5712 20.419C22.7011 20.4276 22.8316 20.4178 22.9587 20.3897C23.0717 20.3842 23.1802 20.344 23.2695 20.2747C23.3588 20.2054 23.4247 20.1103 23.4581 20.0023C23.4884 19.9224 23.4999 19.8367 23.4918 19.7518C23.4837 19.6668 23.4563 19.5848 23.4115 19.5121C23.3668 19.4394 23.3059 19.378 23.2337 19.3325C23.1615 19.287 23.0798 19.2587 22.9949 19.2497C22.9639 19.2497 22.9432 19.2394 22.9105 19.2394L22.7796 19.2222ZM17.3343 19.2755C17.2528 19.2709 17.1711 19.272 17.0897 19.279C16.9539 19.2882 16.8225 19.3315 16.7078 19.4049C16.5931 19.4784 16.4988 19.5796 16.4336 19.6992C16.3813 19.7962 16.3409 19.8991 16.3131 20.0057C16.2119 20.3886 16.185 20.7872 16.2339 21.1802C16.2511 21.3972 16.3096 21.6107 16.4061 21.8053C16.5387 22.0602 16.7849 22.2341 17.0725 22.2651C17.41 22.3129 17.7538 22.2482 18.0507 22.0809C18.0837 22.0662 18.1113 22.0415 18.1296 22.0103C18.1478 21.9791 18.1558 21.9429 18.1523 21.9069V20.7755H18.1626C18.1626 20.3966 18.1488 20.0178 18.1626 19.6355C18.1667 19.5967 18.1575 19.5577 18.1365 19.5249C18.1156 19.492 18.0841 19.4673 18.0472 19.4546C17.8236 19.349 17.5814 19.2881 17.3343 19.2755ZM27.8754 19.3203C27.8162 19.319 27.757 19.3207 27.698 19.3255C27.5685 19.3342 27.443 19.374 27.3321 19.4415C27.2212 19.5089 27.1281 19.602 27.0608 19.713C26.9813 19.8382 26.9226 19.9754 26.8869 20.1194C26.8105 20.4816 26.7931 20.8538 26.8352 21.2215C26.857 21.4374 26.9156 21.6429 27.0108 21.838C27.1159 22.0809 27.3381 22.2548 27.5964 22.303C27.7139 22.3253 27.834 22.3299 27.9528 22.3168C28.0703 22.3055 28.1839 22.2687 28.2856 22.2089C28.3874 22.1491 28.4748 22.0678 28.5418 21.9706C28.6196 21.8607 28.6784 21.7384 28.7157 21.609L28.7071 21.6262C28.7829 21.3668 28.8116 21.101 28.7932 20.8289C28.7989 20.7147 28.7989 20.6003 28.7932 20.4862C28.7814 20.2418 28.7223 20.002 28.6193 19.7801C28.565 19.6678 28.4854 19.5696 28.3868 19.4931C28.2882 19.4166 28.1733 19.364 28.051 19.3393C27.9928 19.3299 27.9342 19.3236 27.8754 19.3203ZM29.7387 24.8759C30.1451 24.8781 30.5469 24.9252 30.9442 25.0171C31.0544 25.0469 31.1617 25.0871 31.2662 25.1376C31.3372 25.166 31.399 25.2136 31.4446 25.275C31.4902 25.3364 31.5179 25.4093 31.5245 25.4855C31.5486 25.6611 31.5544 25.8379 31.5417 26.0159C31.4611 27.073 31.1376 28.0973 30.5963 29.0089L30.5894 29.0158C30.3923 29.3464 30.15 29.6478 29.8696 29.9113C29.8125 29.9664 29.7436 30.0077 29.6681 30.0319C29.6453 30.041 29.6206 30.0442 29.5963 30.0411C29.5719 30.038 29.5488 30.0288 29.529 30.0144C29.5092 29.9999 29.4934 29.9807 29.4831 29.9584C29.4728 29.9362 29.4683 29.9117 29.47 29.8872C29.4754 29.8223 29.4899 29.7586 29.5131 29.6978C29.7373 29.1174 29.9373 28.5279 30.1124 27.9309C30.21 27.5991 30.2806 27.2627 30.3242 26.9217C30.3378 26.7975 30.3378 26.6722 30.3242 26.548C30.3226 26.4455 30.2884 26.3461 30.2264 26.2643C30.1645 26.1826 30.0781 26.1227 29.9798 26.0934C29.786 26.0316 29.5852 25.9946 29.3822 25.9832C28.8094 25.9577 28.2355 25.9825 27.667 26.0572L26.9144 26.1502C26.8317 26.1502 26.7594 26.1502 26.7146 26.0762C26.6975 26.0406 26.6901 26.0012 26.6932 25.9619C26.6962 25.9226 26.7095 25.8848 26.7319 25.8523C26.7842 25.7834 26.8491 25.725 26.923 25.6801C27.3845 25.3632 27.9012 25.1359 28.4471 25.0171C28.8742 24.9321 29.3047 24.885 29.7387 24.8759ZM5.93906 25.1824C5.96819 25.1809 5.99723 25.1868 6.02344 25.1996C6.07816 25.2232 6.13162 25.2497 6.1836 25.2788C8.41765 26.6639 10.8632 27.6744 13.4234 28.2701C15.5095 28.7655 17.6523 28.9804 19.7952 28.909C22.0566 28.8089 24.2935 28.3975 26.4426 27.6863C27.229 27.4246 28.0005 27.1203 28.7571 26.7736C28.8707 26.7099 29.0041 26.6915 29.1308 26.722C29.2294 26.7479 29.3138 26.8116 29.366 26.8992C29.4182 26.9868 29.4339 27.0913 29.4098 27.1904L29.3856 27.2713V27.2748C29.3361 27.3674 29.266 27.4476 29.1807 27.509C28.4619 28.0722 27.6889 28.5625 26.8731 28.9728C25.3347 29.7506 23.6939 30.3067 21.9995 30.6243C21.0236 30.7965 20.0403 30.9021 19.0495 30.9411V30.967H18.2901V30.9463C17.9479 30.9302 17.6081 30.9113 17.2706 30.8895C16.3626 30.821 15.4611 30.6839 14.5737 30.4796C11.5657 29.7797 8.78437 28.328 6.49014 26.2604C6.27447 26.0683 6.06205 25.8725 5.85295 25.6732C5.80325 25.6242 5.764 25.5656 5.73757 25.501C5.71349 25.4458 5.7119 25.3835 5.73313 25.3272C5.75436 25.2709 5.79674 25.2251 5.85123 25.1996C5.87796 25.1865 5.90763 25.1806 5.93734 25.1824H5.93906Z" fill="url(#paint0_linear_6055_2848)"/>
<defs>
<linearGradient id="paint0_linear_6055_2848" x1="35.0126" y1="35.362" x2="-3.48172" y2="-3.28268" gradientUnits="userSpaceOnUse">
<stop stop-color="#0094FF"/>
<stop offset="1" stop-color="#11D4FF"/>
</linearGradient>
</defs>
</svg>
