<svg width="38" height="38" viewBox="0 0 38 38" fill="none" xmlns="http://www.w3.org/2000/svg">
<path d="M1.50085 4.84092C1.50085 3.23986 2.79876 1.94196 4.39982 1.94196H32.866C34.4671 1.94196 35.765 3.23986 35.765 4.84092V33.3071C35.765 34.9082 34.4671 36.2061 32.866 36.2061H4.39981C2.79876 36.2061 1.50085 34.9082 1.50085 33.3071V4.84092Z" fill="black"/>
<path d="M20.4706 7.46846L20.4616 12.6048L20.4525 17.7411L20.0299 16.5488L20.0291 16.5465L19.4831 27.9814C20.02 29.4976 20.3076 30.307 20.3108 30.3102C20.315 30.3145 20.6211 30.333 20.9907 30.3513C22.1109 30.4069 23.4991 30.5259 24.5522 30.6568C24.796 30.6871 25.0058 30.7026 25.0186 30.6913C25.0311 30.68 25.038 25.4502 25.0338 19.0696L25.0261 7.46846H20.4706ZM12.231 7.45306V19.066C12.231 25.4532 12.2372 30.6852 12.2449 30.6929C12.2525 30.7005 12.648 30.6631 13.1239 30.6099C13.5996 30.5566 14.2573 30.4903 14.5852 30.4626C15.0881 30.4201 16.5896 30.3236 16.7634 30.3225C16.814 30.3222 16.8172 30.0614 16.8246 25.4039L16.8324 20.4854L17.1956 21.5133L17.3242 21.8766L17.8701 10.4445L17.6825 9.91431C17.4023 9.12184 17.1219 8.32945 16.8412 7.53715L16.8111 7.45306H12.231Z" fill="#B1060F" stroke="black" stroke-width="0.714111"/>
<path d="M12.231 7.45306V13.9717L16.823 26.1529C16.8235 25.8737 16.8241 25.723 16.8246 25.4039L16.8324 20.4854L17.1956 21.5133C19.218 27.2357 20.3044 30.3038 20.3108 30.3102C20.315 30.3145 20.6211 30.333 20.9907 30.3513C22.1109 30.4069 23.4991 30.5259 24.5522 30.6568C24.796 30.6871 25.0058 30.7026 25.0186 30.6913C25.0271 30.6835 25.0329 28.1191 25.0343 24.5017L20.4637 11.3613L20.4616 12.6048L20.4525 17.7411L20.0299 16.5488C19.617 15.3838 19.3413 14.6046 17.6825 9.91431C17.4023 9.12184 17.1219 8.32945 16.8412 7.53715L16.8111 7.45306H12.231Z" fill="url(#paint0_radial_6055_2786)"/>
<path d="M12.231 7.45306L16.8322 20.4913V20.4854L17.1955 21.5133C19.2178 27.2357 20.3043 30.3038 20.3107 30.3102C20.3148 30.3145 20.6209 30.333 20.9906 30.3513C22.1108 30.4069 23.499 30.5259 24.5521 30.6568C24.7947 30.687 25.0033 30.7024 25.018 30.6914L20.4522 17.7388V17.7411L20.0296 16.5488C19.6167 15.3838 19.341 14.6046 17.6822 9.91431C17.2361 8.65303 16.8575 7.58348 16.8409 7.53715L16.8108 7.45306H12.231Z" fill="#E50914"/>
<path d="M20.4706 7.46846L20.4616 12.6048L20.4525 17.7411L20.0299 16.5488L20.0291 16.5465L19.4831 27.9814C20.02 29.4976 20.3076 30.307 20.3108 30.3102C20.315 30.3145 20.6211 30.333 20.9907 30.3513C22.1109 30.4069 23.4991 30.5259 24.5522 30.6568C24.796 30.6871 25.0058 30.7026 25.0186 30.6913C25.0311 30.68 25.038 25.4502 25.0338 19.0696L25.0261 7.46846H20.4706ZM12.231 7.45306V19.066C12.231 25.4532 12.2372 30.6852 12.2449 30.6929C12.2525 30.7005 12.648 30.6631 13.1239 30.6099C13.5996 30.5566 14.2573 30.4903 14.5852 30.4626C15.0881 30.4201 16.5896 30.3236 16.7634 30.3225C16.814 30.3222 16.8172 30.0614 16.8246 25.4039L16.8324 20.4854L17.1956 21.5133L17.3242 21.8766L17.8701 10.4445L17.6825 9.91431C17.4023 9.12184 17.1219 8.32945 16.8412 7.53715L16.8111 7.45306H12.231Z" fill="#B1060F" stroke="black" stroke-width="0.714111"/>
<path d="M12.231 7.45306V13.9717L16.823 26.1529C16.8235 25.8737 16.8241 25.723 16.8246 25.4039L16.8324 20.4854L17.1956 21.5133C19.218 27.2357 20.3044 30.3038 20.3108 30.3102C20.315 30.3145 20.6211 30.333 20.9907 30.3513C22.1109 30.4069 23.4991 30.5259 24.5522 30.6568C24.796 30.6871 25.0058 30.7026 25.0186 30.6913C25.0271 30.6835 25.0329 28.1191 25.0343 24.5017L20.4637 11.3613L20.4616 12.6048L20.4525 17.7411L20.0299 16.5488C19.617 15.3838 19.3413 14.6046 17.6825 9.91431C17.4023 9.12184 17.1219 8.32945 16.8412 7.53715L16.8111 7.45306H12.231Z" fill="url(#paint1_radial_6055_2786)"/>
<path d="M12.231 7.45306L16.8322 20.4913V20.4854L17.1955 21.5133C19.2178 27.2357 20.3043 30.3038 20.3107 30.3102C20.3148 30.3145 20.6209 30.333 20.9906 30.3513C22.1108 30.4069 23.499 30.5259 24.5521 30.6568C24.7947 30.687 25.0033 30.7024 25.018 30.6914L20.4522 17.7388V17.7411L20.0296 16.5488C19.6167 15.3838 19.341 14.6046 17.6822 9.91431C17.2361 8.65303 16.8575 7.58348 16.8409 7.53715L16.8108 7.45306H12.231Z" fill="#E50914"/>
<defs>
<radialGradient id="paint0_radial_6055_2786" cx="0" cy="0" r="1" gradientUnits="userSpaceOnUse" gradientTransform="translate(631.147 637.744) scale(901.845 901.854)">
<stop/>
<stop offset="1" stop-opacity="0"/>
</radialGradient>
<radialGradient id="paint1_radial_6055_2786" cx="0" cy="0" r="1" gradientUnits="userSpaceOnUse" gradientTransform="translate(631.147 637.744) scale(901.845 901.854)">
<stop/>
<stop offset="1" stop-opacity="0"/>
</radialGradient>
</defs>
</svg>
