<svg width="21" height="20" viewBox="0 0 21 20" fill="none" xmlns="http://www.w3.org/2000/svg">
<path d="M10.1329 12.3412C11.4258 12.3412 12.4739 11.2931 12.4739 10.0002C12.4739 8.70729 11.4258 7.65918 10.1329 7.65918C8.83998 7.65918 7.79187 8.70729 7.79187 10.0002C7.79187 11.2931 8.83998 12.3412 10.1329 12.3412Z" stroke="white" stroke-width="1.5" stroke-linecap="round" stroke-linejoin="round"/>
<path d="M11.5101 2.31527C11.2237 2.19666 10.8601 2.19666 10.1328 2.19666C9.40554 2.19666 9.0419 2.19666 8.75551 2.31527C8.56603 2.3937 8.39387 2.50871 8.24886 2.65372C8.10385 2.79873 7.98884 2.97089 7.91041 3.16037C7.83862 3.33439 7.80974 3.53806 7.79882 3.83381C7.79396 4.04761 7.73483 4.25667 7.627 4.44135C7.51916 4.62604 7.36616 4.78028 7.18235 4.8896C6.99577 4.9942 6.78566 5.04965 6.57176 5.05074C6.35787 5.05184 6.1472 4.99853 5.95956 4.89585C5.69737 4.75695 5.50774 4.68047 5.31968 4.6555C4.90947 4.60156 4.49463 4.71271 4.16634 4.96452C3.92132 5.15414 3.73872 5.46862 3.37508 6.09835C3.01144 6.72808 2.82884 7.04256 2.78904 7.35079C2.76223 7.55403 2.77572 7.76057 2.82874 7.95859C2.88176 8.15662 2.97328 8.34226 3.09806 8.50491C3.21355 8.65474 3.37508 8.78037 3.62557 8.938C3.99467 9.16976 4.23189 9.56461 4.23189 10C4.23189 10.4355 3.99467 10.8303 3.62557 11.0613C3.37508 11.2197 3.21277 11.3453 3.09806 11.4952C2.97328 11.6578 2.88176 11.8435 2.82874 12.0415C2.77572 12.2395 2.76223 12.4461 2.78904 12.6493C2.82962 12.9567 3.01144 13.272 3.3743 13.9017C3.73872 14.5315 3.92054 14.8459 4.16634 15.0356C4.32899 15.1604 4.51463 15.2519 4.71266 15.3049C4.91069 15.3579 5.11722 15.3714 5.32046 15.3446C5.50775 15.3196 5.69737 15.2431 5.95956 15.1042C6.1472 15.0016 6.35787 14.9482 6.57176 14.9493C6.78566 14.9504 6.99577 15.0059 7.18235 15.1105C7.55926 15.329 7.78321 15.7309 7.79882 16.1663C7.80974 16.4628 7.83784 16.6657 7.91041 16.8397C7.98884 17.0292 8.10385 17.2014 8.24886 17.3464C8.39387 17.4914 8.56603 17.6064 8.75551 17.6848C9.0419 17.8034 9.40554 17.8034 10.1328 17.8034C10.8601 17.8034 11.2237 17.8034 11.5101 17.6848C11.6996 17.6064 11.8718 17.4914 12.0168 17.3464C12.1618 17.2014 12.2768 17.0292 12.3552 16.8397C12.427 16.6657 12.4559 16.4628 12.4668 16.1663C12.4824 15.7309 12.7064 15.3282 13.0833 15.1105C13.2699 15.0059 13.48 14.9504 13.6939 14.9493C13.9078 14.9482 14.1184 15.0016 14.3061 15.1042C14.5683 15.2431 14.7579 15.3196 14.9452 15.3446C15.1484 15.3714 15.3549 15.3579 15.553 15.3049C15.751 15.2519 15.9366 15.1604 16.0993 15.0356C16.3451 14.8467 16.5269 14.5315 16.8905 13.9017C17.2542 13.272 17.4368 12.9575 17.4766 12.6493C17.5034 12.4461 17.4899 12.2395 17.4369 12.0415C17.3839 11.8435 17.2923 11.6578 17.1676 11.4952C17.0521 11.3453 16.8905 11.2197 16.6401 11.0621C16.4573 10.951 16.3057 10.7952 16.1996 10.6094C16.0936 10.4236 16.0365 10.2139 16.0337 10C16.0337 9.56461 16.271 9.16976 16.6401 8.93878C16.8905 8.78037 17.0529 8.65474 17.1676 8.50491C17.2923 8.34226 17.3839 8.15662 17.4369 7.95859C17.4899 7.76057 17.5034 7.55403 17.4766 7.35079C17.436 7.04334 17.2542 6.72808 16.8913 6.09835C16.5269 5.46862 16.3451 5.15414 16.0993 4.96452C15.9366 4.83973 15.751 4.74822 15.553 4.6952C15.3549 4.64217 15.1484 4.62869 14.9452 4.6555C14.7579 4.68047 14.5683 4.75695 14.3053 4.89585C14.1177 4.9984 13.9072 5.05162 13.6935 5.05053C13.4797 5.04944 13.2698 4.99406 13.0833 4.8896C12.8995 4.78028 12.7465 4.62604 12.6386 4.44135C12.5308 4.25667 12.4717 4.04761 12.4668 3.83381C12.4559 3.53728 12.4278 3.33439 12.3552 3.16037C12.2768 2.97089 12.1618 2.79873 12.0168 2.65372C11.8718 2.50871 11.6996 2.3937 11.5101 2.31527Z" stroke="white" stroke-width="1.5" stroke-linecap="round" stroke-linejoin="round"/>
</svg>
