<svg width="17" height="16" viewBox="0 0 17 16" fill="none" xmlns="http://www.w3.org/2000/svg">
<g clip-path="url(#clip0_8018_1249)">
<path d="M2.41851 6.28576V12.5715M6.22765 6.28576V12.5715M10.0379 6.28576V12.5715M13.8471 6.28576V12.5715M14.8871 6.28576H1.37851C0.738509 6.28576 0.464224 5.58862 0.967081 5.25719L7.72137 0.834331C7.84607 0.760973 7.98812 0.72229 8.1328 0.72229C8.27747 0.72229 8.41952 0.760973 8.54422 0.834331L15.2985 5.25719C15.8014 5.58862 15.5271 6.28576 14.8871 6.28576ZM14.9899 12.5715H1.27565C1.1241 12.5715 0.978755 12.6317 0.871591 12.7388C0.764428 12.846 0.704224 12.9914 0.704224 13.1429V14.8572C0.704224 15.0087 0.764428 15.1541 0.871591 15.2613C0.978755 15.3684 1.1241 15.4286 1.27565 15.4286H14.9899C15.1415 15.4286 15.2868 15.3684 15.394 15.2613C15.5012 15.1541 15.5614 15.0087 15.5614 14.8572V13.1429C15.5614 12.9914 15.5012 12.846 15.394 12.7388C15.2868 12.6317 15.1415 12.5715 14.9899 12.5715Z" stroke="#373737" stroke-linecap="round" stroke-linejoin="round"/>
</g>
<defs>
<clipPath id="clip0_8018_1249">
<rect width="16" height="16" fill="white" transform="translate(0.132812)"/>
</clipPath>
</defs>
</svg>
