<svg width="17" height="17" viewBox="0 0 17 17" fill="none" xmlns="http://www.w3.org/2000/svg">
<g clip-path="url(#clip0_2_10)">
<path d="M3.00071 6.74426V13.03M6.80985 6.74426V13.03M10.6201 6.74426V13.03M14.4293 6.74426V13.03M15.4693 6.74426H1.96071C1.32071 6.74426 1.04642 6.04711 1.54928 5.71568L8.30357 1.29283C8.42827 1.21947 8.57032 1.18079 8.71499 1.18079C8.85967 1.18079 9.00172 1.21947 9.12642 1.29283L15.8807 5.71568C16.3836 6.04711 16.1093 6.74426 15.4693 6.74426ZM15.5721 13.03H1.85785C1.7063 13.03 1.56095 13.0902 1.45379 13.1973C1.34663 13.3045 1.28642 13.4498 1.28642 13.6014V15.3157C1.28642 15.4672 1.34663 15.6126 1.45379 15.7197C1.56095 15.8269 1.7063 15.8871 1.85785 15.8871H15.5721C15.7237 15.8871 15.869 15.8269 15.9762 15.7197C16.0834 15.6126 16.1436 15.4672 16.1436 15.3157V13.6014C16.1436 13.4498 16.0834 13.3045 15.9762 13.1973C15.869 13.0902 15.7237 13.03 15.5721 13.03Z" stroke="#373737" stroke-linecap="round" stroke-linejoin="round"/>
</g>
<defs>
<clipPath id="clip0_2_10">
<rect width="16" height="16" fill="white" transform="translate(0.714996 0.458496)"/>
</clipPath>
</defs>
</svg>
