<svg width="68" height="84" viewBox="0 0 68 84" fill="none" xmlns="http://www.w3.org/2000/svg">
<path d="M34 83.5451C24.3754 81.1216 16.4292 75.5989 10.1614 66.9769C3.89365 58.3549 0.761148 48.7829 0.763918 38.261V12.9185L34 0.454956L67.236 12.9185V38.261C67.236 48.7857 64.1035 58.3591 57.8385 66.9811C51.5735 75.603 43.6273 81.1244 34 83.5451Z" fill="#00E377"/>
<path d="M1.40797 38.2611V38.261V13.3648L34 1.14281L66.592 13.3648V38.261C66.592 48.6478 63.5036 58.089 57.3175 66.6025C51.1684 75.0649 43.3992 80.4792 34.0001 82.8806C24.6036 80.4765 16.8342 75.0608 10.6824 66.5982C4.49352 58.0848 1.40524 48.6451 1.40797 38.2611Z" stroke="black" stroke-opacity="0.09" stroke-width="1.28811"/>
</svg>
