<svg width="26" height="26" viewBox="0 0 26 26" fill="none" xmlns="http://www.w3.org/2000/svg">
<path d="M12.8204 0C5.76611 0 0.0476074 5.7185 0.0476074 12.7728C0.0476074 19.8272 5.76611 25.5457 12.8204 25.5457C19.8748 25.5457 25.5933 19.8272 25.5933 12.7728C25.5933 5.7185 19.8748 0 12.8204 0ZM18.016 10.4631C18.0214 10.5722 18.0227 10.6813 18.0227 10.7877C18.0227 14.114 15.4934 17.9472 10.8659 17.9472C9.49856 17.9494 8.15964 17.5567 7.01013 16.8162C7.20571 16.8402 7.40662 16.8495 7.61019 16.8495C8.78901 16.8495 9.87337 16.449 10.7342 15.7731C10.2096 15.7628 9.7013 15.5891 9.28011 15.2762C8.85893 14.9633 8.54586 14.5268 8.38454 14.0275C8.76128 14.0991 9.14938 14.0841 9.51946 13.9836C8.95007 13.8684 8.43802 13.5599 8.07015 13.1103C7.70228 12.6607 7.50123 12.0977 7.50108 11.5168V11.4862C7.84036 11.6738 8.22887 11.7883 8.64132 11.8016C8.10753 11.4462 7.72965 10.9004 7.58497 10.2756C7.44028 9.65093 7.53974 8.99453 7.86298 8.44071C8.49491 9.21772 9.28297 9.85337 10.1762 10.3065C11.0693 10.7596 12.0477 11.0201 13.0479 11.0711C12.9208 10.5313 12.9755 9.96467 13.2036 9.45922C13.4317 8.95376 13.8205 8.53782 14.3094 8.27608C14.7983 8.01433 15.3599 7.92144 15.9071 8.01185C16.4542 8.10226 16.9561 8.37089 17.3348 8.776C17.8979 8.6646 18.4378 8.45808 18.9314 8.1653C18.7438 8.74823 18.3509 9.24324 17.8258 9.55833C18.3245 9.49826 18.8115 9.36418 19.2707 9.16051C18.9334 9.66596 18.5085 10.1071 18.016 10.4631Z" fill="#373737"/>
</svg>
