<svg width="26" height="26" viewBox="0 0 26 26" fill="none" xmlns="http://www.w3.org/2000/svg">
<path d="M12.9448 0C5.8905 0 0.171997 5.7185 0.171997 12.7728C0.171997 19.8272 5.8905 25.5457 12.9448 25.5457C19.9991 25.5457 25.7177 19.8272 25.7177 12.7728C25.7177 5.7185 19.9991 0 12.9448 0ZM9.81814 18.0669H7.23164V9.74327H9.81814V18.0669ZM8.50893 8.72145C7.692 8.72145 7.16379 8.14268 7.16379 7.42687C7.16379 6.69642 7.70796 6.13495 8.54219 6.13495C9.37642 6.13495 9.88733 6.69642 9.90329 7.42687C9.90329 8.14268 9.37642 8.72145 8.50893 8.72145ZM19.2647 18.0669H16.6782V13.454C16.6782 12.3803 16.303 11.6512 15.3677 11.6512C14.6532 11.6512 14.2288 12.1448 14.0412 12.6198C13.972 12.7888 13.9547 13.0283 13.9547 13.2664V18.0656H11.3668V12.3976C11.3668 11.3585 11.3336 10.4897 11.299 9.74194H13.5462L13.6646 10.8981H13.7165C14.0571 10.3553 14.8913 9.55434 16.287 9.55434C17.9888 9.55434 19.2647 10.6946 19.2647 13.1454V18.0669Z" fill="#373737"/>
</svg>
